STARTFONT 2.1
FONT -Monotype-Times New Roman-Bold-I-Normal--12-120-75-75-P-75-iso8859-5
SIZE 12 75 75
FONTBOUNDINGBOX 18 15 -3 -3

STARTPROPERTIES 24
FOUNDRY "Monotype"
FAMILY_NAME "Times New Roman"
WEIGHT_NAME "Bold"
SLANT "I"
SETWIDTH_NAME "Normal"
ADD_STYLE_NAME ""
PIXEL_SIZE 12
POINT_SIZE 120
RESOLUTION_X 75
RESOLUTION_Y 75
SPACING "P"
AVERAGE_WIDTH 75
CHARSET_REGISTRY "iso8859"
CHARSET_ENCODING "5"
FACE_NAME "Times New Roman Bold Inclined ISO Latin Cyrillic"
_DEC_DEVICE_FONTNAMES "PS=timesnewroman-bin-latcyrillic"
COPYRIGHT "Copyright (c) 1994 Monotype Typography Ltd."
CAP_HEIGHT 10
X_HEIGHT 7
WEIGHT 10
QUAD_WIDTH 9
DEFAULT_CHAR 160
FONT_DESCENT 4
FONT_ASCENT 12
ENDPROPERTIES

CHARS 191

STARTCHAR space
ENCODING 32
SWIDTH 250 0
DWIDTH 3 0
BBX 0 0 0 0
BITMAP
ENDCHAR

STARTCHAR exclam
ENCODING 33
SWIDTH 271 0
DWIDTH 4 0
BBX 4 9 0 0
BITMAP
30
30
30
60
60
60
00
C0
C0
ENDCHAR

STARTCHAR quotedbl
ENCODING 34
SWIDTH 552 0
DWIDTH 7 0
BBX 5 4 2 5
BITMAP
D8
D8
D8
48
ENDCHAR

STARTCHAR numbersign
ENCODING 35
SWIDTH 667 0
DWIDTH 9 0
BBX 7 9 1 0
BITMAP
22
22
22
FE
44
44
FE
88
88
ENDCHAR

STARTCHAR dollar
ENCODING 36
SWIDTH 500 0
DWIDTH 7 0
BBX 6 11 0 -1
BITMAP
08
3C
6C
68
68
30
58
58
D8
F0
40
ENDCHAR

STARTCHAR percent
ENCODING 37
SWIDTH 875 0
DWIDTH 11 0
BBX 10 9 1 0
BITMAP
6040
B080
B100
B200
6D80
12C0
22C0
42C0
8180
ENDCHAR

STARTCHAR ampersand
ENCODING 38
SWIDTH 719 0
DWIDTH 9 0
BBX 9 9 0 0
BITMAP
0C00
1600
3600
3400
1B80
6D00
CE00
CC00
7700
ENDCHAR

STARTCHAR quoteright
ENCODING 39
SWIDTH 271 0
DWIDTH 4 0
BBX 2 4 2 5
BITMAP
C0
C0
40
80
ENDCHAR

STARTCHAR parenleft
ENCODING 40
SWIDTH 500 0
DWIDTH 7 0
BBX 5 11 1 -2
BITMAP
08
30
60
60
C0
C0
C0
C0
C0
40
20
ENDCHAR

STARTCHAR parenright
ENCODING 41
SWIDTH 500 0
DWIDTH 7 0
BBX 5 11 0 -2
BITMAP
20
10
18
18
18
18
18
30
30
60
80
ENDCHAR

STARTCHAR asterisk
ENCODING 42
SWIDTH 500 0
DWIDTH 7 0
BBX 5 5 2 5
BITMAP
20
20
F8
50
50
ENDCHAR

STARTCHAR plus
ENCODING 43
SWIDTH 667 0
DWIDTH 9 0
BBX 7 7 1 0
BITMAP
10
10
10
FE
10
10
10
ENDCHAR

STARTCHAR comma
ENCODING 44
SWIDTH 271 0
DWIDTH 4 0
BBX 2 4 0 -2
BITMAP
C0
C0
40
80
ENDCHAR

STARTCHAR minus
ENCODING 45
SWIDTH 667 0
DWIDTH 9 0
BBX 7 1 1 3
BITMAP
FE
ENDCHAR

STARTCHAR period
ENCODING 46
SWIDTH 271 0
DWIDTH 4 0
BBX 2 2 0 0
BITMAP
C0
C0
ENDCHAR

STARTCHAR slash
ENCODING 47
SWIDTH 281 0
DWIDTH 4 0
BBX 4 9 0 0
BITMAP
30
30
30
60
60
60
C0
C0
C0
ENDCHAR

STARTCHAR zero
ENCODING 48
SWIDTH 500 0
DWIDTH 6 0
BBX 6 9 0 0
BITMAP
38
6C
6C
CC
CC
CC
D8
D8
70
ENDCHAR

STARTCHAR one
ENCODING 49
SWIDTH 500 0
DWIDTH 6 0
BBX 5 9 0 0
BITMAP
08
38
18
30
30
30
60
60
F0
ENDCHAR

STARTCHAR two
ENCODING 50
SWIDTH 500 0
DWIDTH 6 0
BBX 6 9 0 0
BITMAP
38
4C
0C
0C
18
10
24
78
F0
ENDCHAR

STARTCHAR three
ENCODING 51
SWIDTH 500 0
DWIDTH 6 0
BBX 6 9 0 0
BITMAP
38
4C
0C
10
78
18
18
90
E0
ENDCHAR

STARTCHAR four
ENCODING 52
SWIDTH 500 0
DWIDTH 6 0
BBX 6 9 0 0
BITMAP
04
0C
1C
2C
58
98
FC
30
30
ENDCHAR

STARTCHAR five
ENCODING 53
SWIDTH 500 0
DWIDTH 6 0
BBX 6 9 0 0
BITMAP
1C
3C
20
70
18
18
18
90
E0
ENDCHAR

STARTCHAR six
ENCODING 54
SWIDTH 500 0
DWIDTH 6 0
BBX 6 9 0 0
BITMAP
0C
30
60
70
D8
D8
D8
D0
60
ENDCHAR

STARTCHAR seven
ENCODING 55
SWIDTH 500 0
DWIDTH 6 0
BBX 6 9 0 0
BITMAP
7C
7C
88
10
10
20
40
40
80
ENDCHAR

STARTCHAR eight
ENCODING 56
SWIDTH 500 0
DWIDTH 6 0
BBX 6 9 0 0
BITMAP
18
2C
6C
38
70
D8
D8
D0
60
ENDCHAR

STARTCHAR nine
ENCODING 57
SWIDTH 500 0
DWIDTH 6 0
BBX 6 9 0 0
BITMAP
18
2C
6C
6C
6C
38
18
30
C0
ENDCHAR

STARTCHAR colon
ENCODING 58
SWIDTH 333 0
DWIDTH 4 0
BBX 3 6 0 0
BITMAP
60
60
00
00
C0
C0
ENDCHAR

STARTCHAR semicolon
ENCODING 59
SWIDTH 333 0
DWIDTH 4 0
BBX 3 8 0 -2
BITMAP
60
60
00
00
C0
C0
40
80
ENDCHAR

STARTCHAR less
ENCODING 60
SWIDTH 667 0
DWIDTH 9 0
BBX 7 7 1 0
BITMAP
02
1E
70
C0
70
1E
02
ENDCHAR

STARTCHAR equal
ENCODING 61
SWIDTH 667 0
DWIDTH 9 0
BBX 7 4 1 2
BITMAP
FE
00
00
FE
ENDCHAR

STARTCHAR greater
ENCODING 62
SWIDTH 667 0
DWIDTH 9 0
BBX 7 7 1 0
BITMAP
80
F0
1C
06
1C
F0
80
ENDCHAR

STARTCHAR question
ENCODING 63
SWIDTH 385 0
DWIDTH 5 0
BBX 5 9 0 0
BITMAP
70
98
18
30
20
40
00
C0
C0
ENDCHAR

STARTCHAR at
ENCODING 64
SWIDTH 958 0
DWIDTH 12 0
BBX 12 12 0 -3
BITMAP
0F80
1040
2020
4790
4D90
8D90
9B10
9B60
4D90
6020
18C0
0700
ENDCHAR

STARTCHAR A
ENCODING 65
SWIDTH 719 0
DWIDTH 9 0
BBX 9 9 -1 0
BITMAP
0100
0300
0700
0B00
1300
1F00
2300
4300
E780
ENDCHAR

STARTCHAR B
ENCODING 66
SWIDTH 667 0
DWIDTH 9 0
BBX 9 9 -1 0
BITMAP
3F00
1980
1980
3300
3E00
3300
6300
6600
FC00
ENDCHAR

STARTCHAR C
ENCODING 67
SWIDTH 719 0
DWIDTH 9 0
BBX 9 9 0 0
BITMAP
0E80
3100
6100
6000
C000
C000
C000
C600
7800
ENDCHAR

STARTCHAR D
ENCODING 68
SWIDTH 771 0
DWIDTH 10 0
BBX 10 9 -1 0
BITMAP
3F80
18C0
18C0
30C0
30C0
3180
6180
6300
FC00
ENDCHAR

STARTCHAR E
ENCODING 69
SWIDTH 667 0
DWIDTH 9 0
BBX 9 9 -1 0
BITMAP
3F80
1880
1800
3100
3E00
3200
6000
6100
FE00
ENDCHAR

STARTCHAR F
ENCODING 70
SWIDTH 604 0
DWIDTH 8 0
BBX 9 9 -1 0
BITMAP
3F80
1880
1800
3200
3C00
3400
6000
6000
F000
ENDCHAR

STARTCHAR G
ENCODING 71
SWIDTH 719 0
DWIDTH 9 0
BBX 9 9 0 0
BITMAP
0E80
3100
6100
6000
C000
CF00
C600
C600
7C00
ENDCHAR

STARTCHAR H
ENCODING 72
SWIDTH 823 0
DWIDTH 11 0
BBX 12 9 -1 0
BITMAP
3CF0
1860
1860
30C0
3FC0
30C0
6180
6180
F3C0
ENDCHAR

STARTCHAR I
ENCODING 73
SWIDTH 385 0
DWIDTH 5 0
BBX 6 9 -1 0
BITMAP
3C
18
18
30
30
30
60
60
F0
ENDCHAR

STARTCHAR J
ENCODING 74
SWIDTH 500 0
DWIDTH 7 0
BBX 8 9 -1 0
BITMAP
0F
06
06
0C
0C
0C
18
D8
70
ENDCHAR

STARTCHAR K
ENCODING 75
SWIDTH 719 0
DWIDTH 9 0
BBX 10 9 -1 0
BITMAP
3DC0
1900
1A00
3400
3C00
3600
6600
6300
F780
ENDCHAR

STARTCHAR L
ENCODING 76
SWIDTH 667 0
DWIDTH 9 0
BBX 9 9 -1 0
BITMAP
3C00
1800
1800
3000
3000
3000
6080
6100
FF00
ENDCHAR

STARTCHAR M
ENCODING 77
SWIDTH 990 0
DWIDTH 13 0
BBX 14 9 -1 0
BITMAP
381C
1838
1858
2CB0
2CB0
2D30
4660
4660
E4F0
ENDCHAR

STARTCHAR N
ENCODING 78
SWIDTH 771 0
DWIDTH 10 0
BBX 11 9 -1 0
BITMAP
38E0
1840
1C40
2C80
2680
2680
4300
4300
E100
ENDCHAR

STARTCHAR O
ENCODING 79
SWIDTH 771 0
DWIDTH 10 0
BBX 9 9 0 0
BITMAP
0F00
3180
6180
6180
C180
C300
C300
C600
7800
ENDCHAR

STARTCHAR P
ENCODING 80
SWIDTH 667 0
DWIDTH 9 0
BBX 9 9 -1 0
BITMAP
3F00
1980
1980
3180
3E00
3000
6000
6000
F000
ENDCHAR

STARTCHAR Q
ENCODING 81
SWIDTH 771 0
DWIDTH 10 0
BBX 9 12 0 -3
BITMAP
0F00
3180
6180
6180
C180
C300
C300
C600
7800
2000
5900
E600
ENDCHAR

STARTCHAR R
ENCODING 82
SWIDTH 719 0
DWIDTH 9 0
BBX 9 9 -1 0
BITMAP
3F00
1980
1980
3300
3C00
3600
6300
6300
F180
ENDCHAR

STARTCHAR S
ENCODING 83
SWIDTH 604 0
DWIDTH 8 0
BBX 9 9 -1 0
BITMAP
1E80
3100
3100
3800
1C00
0E00
4600
4600
BC00
ENDCHAR

STARTCHAR T
ENCODING 84
SWIDTH 667 0
DWIDTH 9 0
BBX 8 9 1 0
BITMAP
7F
99
18
30
30
30
60
60
F0
ENDCHAR

STARTCHAR U
ENCODING 85
SWIDTH 771 0
DWIDTH 10 0
BBX 10 9 0 0
BITMAP
79C0
3080
3080
6100
6100
6100
C200
C400
7800
ENDCHAR

STARTCHAR V
ENCODING 86
SWIDTH 719 0
DWIDTH 9 0
BBX 9 9 1 0
BITMAP
F380
6100
6200
6400
6400
6800
7000
6000
4000
ENDCHAR

STARTCHAR W
ENCODING 87
SWIDTH 990 0
DWIDTH 13 0
BBX 13 9 1 0
BITMAP
F7B8
6310
6320
6740
6B40
7380
6300
6300
4200
ENDCHAR

STARTCHAR X
ENCODING 88
SWIDTH 719 0
DWIDTH 9 0
BBX 10 9 -1 0
BITMAP
78C0
3080
1900
1A00
0C00
1600
2600
4300
C780
ENDCHAR

STARTCHAR Y
ENCODING 89
SWIDTH 719 0
DWIDTH 9 0
BBX 9 9 1 0
BITMAP
F380
6100
6200
3400
3800
3000
6000
6000
F000
ENDCHAR

STARTCHAR Z
ENCODING 90
SWIDTH 719 0
DWIDTH 9 0
BBX 10 9 -1 0
BITMAP
1FC0
1180
2300
0600
0C00
1800
3080
6100
FF00
ENDCHAR

STARTCHAR bracketleft
ENCODING 91
SWIDTH 500 0
DWIDTH 7 0
BBX 7 11 0 -2
BITMAP
0E
18
18
30
30
30
60
60
60
C0
E0
ENDCHAR

STARTCHAR backslash
ENCODING 92
SWIDTH 281 0
DWIDTH 4 0
BBX 4 9 0 0
BITMAP
C0
C0
C0
60
60
60
30
30
30
ENDCHAR

STARTCHAR bracketright
ENCODING 93
SWIDTH 500 0
DWIDTH 7 0
BBX 6 11 0 -2
BITMAP
1C
0C
0C
18
18
18
30
30
30
60
E0
ENDCHAR

STARTCHAR asciicircum
ENCODING 94
SWIDTH 510 0
DWIDTH 7 0
BBX 5 5 1 4
BITMAP
20
20
50
50
88
ENDCHAR

STARTCHAR underscore
ENCODING 95
SWIDTH 500 0
DWIDTH 7 0
BBX 7 1 0 -2
BITMAP
FE
ENDCHAR

STARTCHAR quoteleft
ENCODING 96
SWIDTH 271 0
DWIDTH 4 0
BBX 2 4 1 5
BITMAP
40
80
C0
C0
ENDCHAR

STARTCHAR a
ENCODING 97
SWIDTH 500 0
DWIDTH 6 0
BBX 6 6 0 0
BITMAP
3C
6C
6C
D8
F8
DC
ENDCHAR

STARTCHAR b
ENCODING 98
SWIDTH 500 0
DWIDTH 6 0
BBX 6 9 0 0
BITMAP
70
30
30
7C
6C
6C
D8
D8
70
ENDCHAR

STARTCHAR c
ENCODING 99
SWIDTH 437 0
DWIDTH 6 0
BBX 6 6 0 0
BITMAP
3C
64
60
C0
C8
70
ENDCHAR

STARTCHAR d
ENCODING 100
SWIDTH 500 0
DWIDTH 6 0
BBX 7 9 0 0
BITMAP
0E
06
06
3C
6C
6C
D8
F8
DC
ENDCHAR

STARTCHAR e
ENCODING 101
SWIDTH 437 0
DWIDTH 6 0
BBX 6 6 0 0
BITMAP
38
6C
7C
C0
C8
70
ENDCHAR

STARTCHAR f
ENCODING 102
SWIDTH 333 0
DWIDTH 4 0
BBX 9 12 -3 -3
BITMAP
0180
0280
0600
0C00
1E00
0C00
1800
1800
1800
3000
A000
C000
ENDCHAR

STARTCHAR g
ENCODING 103
SWIDTH 500 0
DWIDTH 6 0
BBX 7 9 -1 -3
BITMAP
1A
2C
6C
68
30
60
7C
CC
70
ENDCHAR

STARTCHAR h
ENCODING 104
SWIDTH 500 0
DWIDTH 6 0
BBX 6 9 0 0
BITMAP
70
30
30
6C
7C
6C
D8
D8
DC
ENDCHAR

STARTCHAR i
ENCODING 105
SWIDTH 271 0
DWIDTH 4 0
BBX 4 9 0 0
BITMAP
30
30
00
E0
60
60
C0
C0
E0
ENDCHAR

STARTCHAR j
ENCODING 106
SWIDTH 271 0
DWIDTH 4 0
BBX 6 12 -2 -3
BITMAP
0C
0C
00
1C
0C
0C
18
18
18
30
30
E0
ENDCHAR

STARTCHAR k
ENCODING 107
SWIDTH 552 0
DWIDTH 7 0
BBX 7 9 0 0
BITMAP
70
30
30
6C
68
70
D8
DA
CC
ENDCHAR

STARTCHAR l
ENCODING 108
SWIDTH 271 0
DWIDTH 4 0
BBX 4 9 0 0
BITMAP
70
30
30
60
60
60
C0
C0
E0
ENDCHAR

STARTCHAR m
ENCODING 109
SWIDTH 771 0
DWIDTH 10 0
BBX 9 6 0 0
BITMAP
ED80
7F80
6D80
DB00
DB00
DB80
ENDCHAR

STARTCHAR n
ENCODING 110
SWIDTH 500 0
DWIDTH 6 0
BBX 6 6 0 0
BITMAP
EC
7C
6C
D8
D8
DC
ENDCHAR

STARTCHAR o
ENCODING 111
SWIDTH 500 0
DWIDTH 6 0
BBX 6 6 0 0
BITMAP
38
6C
6C
D8
D8
70
ENDCHAR

STARTCHAR p
ENCODING 112
SWIDTH 500 0
DWIDTH 6 0
BBX 8 8 -2 -2
BITMAP
3E
1B
1B
36
36
3C
60
F0
ENDCHAR

STARTCHAR q
ENCODING 113
SWIDTH 500 0
DWIDTH 6 0
BBX 6 9 0 -3
BITMAP
3C
6C
6C
D8
F8
D8
30
30
78
ENDCHAR

STARTCHAR r
ENCODING 114
SWIDTH 385 0
DWIDTH 5 0
BBX 5 6 0 0
BITMAP
E8
78
68
C0
C0
C0
ENDCHAR

STARTCHAR s
ENCODING 115
SWIDTH 385 0
DWIDTH 5 0
BBX 5 6 0 0
BITMAP
38
68
60
30
B0
E0
ENDCHAR

STARTCHAR t
ENCODING 116
SWIDTH 333 0
DWIDTH 4 0
BBX 4 8 0 0
BITMAP
10
60
F0
60
60
C0
C0
E0
ENDCHAR

STARTCHAR u
ENCODING 117
SWIDTH 500 0
DWIDTH 6 0
BBX 6 6 0 0
BITMAP
EC
6C
6C
D8
F8
DC
ENDCHAR

STARTCHAR v
ENCODING 118
SWIDTH 438 0
DWIDTH 6 0
BBX 6 6 0 0
BITMAP
EC
64
68
70
60
40
ENDCHAR

STARTCHAR w
ENCODING 119
SWIDTH 667 0
DWIDTH 9 0
BBX 9 6 0 0
BITMAP
ED80
6C80
6D00
7E00
6C00
4800
ENDCHAR

STARTCHAR x
ENCODING 120
SWIDTH 552 0
DWIDTH 7 0
BBX 8 6 -1 0
BITMAP
73
34
18
18
2C
CE
ENDCHAR

STARTCHAR y
ENCODING 121
SWIDTH 500 0
DWIDTH 6 0
BBX 7 9 -1 -3
BITMAP
76
32
32
34
34
38
30
A0
C0
ENDCHAR

STARTCHAR z
ENCODING 122
SWIDTH 437 0
DWIDTH 6 0
BBX 6 7 0 -1
BITMAP
3C
38
50
20
58
D8
60
ENDCHAR

STARTCHAR braceleft
ENCODING 123
SWIDTH 396 0
DWIDTH 5 0
BBX 4 11 0 -2
BITMAP
30
60
60
60
60
C0
60
60
60
60
30
ENDCHAR

STARTCHAR bar
ENCODING 124
SWIDTH 219 0
DWIDTH 3 0
BBX 1 11 1 -2
BITMAP
80
80
80
80
80
80
80
80
80
80
80
ENDCHAR

STARTCHAR braceright
ENCODING 125
SWIDTH 396 0
DWIDTH 5 0
BBX 4 11 0 -2
BITMAP
C0
60
60
60
60
30
60
60
60
60
C0
ENDCHAR

STARTCHAR asciitilde
ENCODING 126
SWIDTH 667 0
DWIDTH 7 0
BBX 7 2 0 3
BITMAP
72
9C
ENDCHAR

STARTCHAR space
ENCODING 160
SWIDTH 250 0
DWIDTH 4 0
BBX 0 0 0 0
BITMAP
ENDCHAR

STARTCHAR afii10023
ENCODING 161
SWIDTH 667 0
DWIDTH 9 0
BBX 9 12 -1 0
BITMAP
0D80
0D80
0000
3F80
1880
1800
3100
3E00
3200
6000
6100
FE00
ENDCHAR

STARTCHAR afii10051
ENCODING 162
SWIDTH 820 0
DWIDTH 11 0
BBX 10 9 0 0
BITMAP
7F00
9900
1800
3380
3CC0
30C0
60C0
6180
F300
ENDCHAR

STARTCHAR afii10052
ENCODING 163
SWIDTH 634 0
DWIDTH 8 0
BBX 9 12 -1 0
BITMAP
0200
0400
0000
3F80
1880
1800
3000
3000
3000
6000
6000
F000
ENDCHAR

STARTCHAR afii10053
ENCODING 164
SWIDTH 695 0
DWIDTH 9 0
BBX 9 9 0 0
BITMAP
0680
1900
3100
6000
FC00
C000
C000
C600
7800
ENDCHAR

STARTCHAR afii10054
ENCODING 165
SWIDTH 604 0
DWIDTH 8 0
BBX 9 9 -1 0
BITMAP
1E80
3100
3100
3800
1C00
0E00
4600
4600
BC00
ENDCHAR

STARTCHAR afii10055
ENCODING 166
SWIDTH 385 0
DWIDTH 5 0
BBX 6 9 -1 0
BITMAP
3C
18
18
30
30
30
60
60
F0
ENDCHAR

STARTCHAR afii10056
ENCODING 167
SWIDTH 385 0
DWIDTH 5 0
BBX 7 12 -1 0
BITMAP
36
36
00
3C
18
18
30
30
30
60
60
F0
ENDCHAR

STARTCHAR afii10057
ENCODING 168
SWIDTH 500 0
DWIDTH 7 0
BBX 8 9 -1 0
BITMAP
0F
06
06
0C
0C
0C
18
D8
70
ENDCHAR

STARTCHAR afii10058
ENCODING 169
SWIDTH 948 0
DWIDTH 12 0
BBX 12 9 -1 0
BITMAP
1FE0
0580
0980
0B00
13E0
1330
1630
A660
CFC0
ENDCHAR

STARTCHAR afii10059
ENCODING 170
SWIDTH 1011 0
DWIDTH 13 0
BBX 13 9 -1 0
BITMAP
3DE0
18C0
18C0
3180
3FF0
3198
6318
6330
F7E0
ENDCHAR

STARTCHAR afii10060
ENCODING 171
SWIDTH 804 0
DWIDTH 10 0
BBX 9 9 0 0
BITMAP
7F00
9900
1800
3700
3980
3180
6300
6300
F780
ENDCHAR

STARTCHAR afii10061
ENCODING 172
SWIDTH 717 0
DWIDTH 9 0
BBX 10 12 -1 0
BITMAP
0100
0200
0000
3CC0
1940
1900
3200
3C00
3600
6600
6300
F380
ENDCHAR

STARTCHAR hyphen
ENCODING 173
SWIDTH 333 0
DWIDTH 4 0
BBX 4 1 0 3
BITMAP
F0
ENDCHAR

STARTCHAR afii10062
ENCODING 174
SWIDTH 711 0
DWIDTH 9 0
BBX 10 12 0 0
BITMAP
0900
0600
0000
79C0
3080
3100
3100
1A00
1C00
1800
D000
E000
ENDCHAR

STARTCHAR afii10145
ENCODING 175
SWIDTH 808 0
DWIDTH 11 0
BBX 12 11 -1 -2
BITMAP
3CF0
1860
1860
30C0
30C0
30C0
6180
6180
FFC0
0800
0800
ENDCHAR

STARTCHAR afii10017
ENCODING 176
SWIDTH 719 0
DWIDTH 9 0
BBX 9 9 -1 0
BITMAP
0100
0300
0700
0B00
1300
1F00
2300
4300
E780
ENDCHAR

STARTCHAR afii10018
ENCODING 177
SWIDTH 667 0
DWIDTH 9 0
BBX 9 9 -1 0
BITMAP
3F80
1880
1800
3000
3F00
3180
6180
6300
FE00
ENDCHAR

STARTCHAR afii10019
ENCODING 178
SWIDTH 667 0
DWIDTH 9 0
BBX 9 9 -1 0
BITMAP
3F00
1980
1980
3300
3E00
3300
6300
6600
FC00
ENDCHAR

STARTCHAR afii10020
ENCODING 179
SWIDTH 619 0
DWIDTH 8 0
BBX 9 9 -1 0
BITMAP
3F80
1880
1800
3000
3000
3000
6000
6000
F000
ENDCHAR

STARTCHAR afii10021
ENCODING 180
SWIDTH 707 0
DWIDTH 9 0
BBX 11 11 -1 -2
BITMAP
0FE0
04C0
04C0
0980
0980
1180
1300
2300
FF80
8080
8080
ENDCHAR

STARTCHAR afii10022
ENCODING 181
SWIDTH 667 0
DWIDTH 9 0
BBX 9 9 -1 0
BITMAP
3F80
1880
1800
3100
3E00
3200
6000
6100
FE00
ENDCHAR

STARTCHAR afii10024
ENCODING 182
SWIDTH 953 0
DWIDTH 12 0
BBX 13 9 -1 0
BITMAP
33D8
1190
09A0
0B20
0FC0
3360
3660
6660
CF30
ENDCHAR

STARTCHAR afii10025
ENCODING 183
SWIDTH 538 0
DWIDTH 7 0
BBX 7 9 -1 0
BITMAP
3C
26
06
0C
38
0C
0C
98
70
ENDCHAR

STARTCHAR afii10026
ENCODING 184
SWIDTH 812 0
DWIDTH 11 0
BBX 12 9 -1 0
BITMAP
3CF0
1860
1860
31C0
36C0
38C0
6180
6180
F3C0
ENDCHAR

STARTCHAR afii10027
ENCODING 185
SWIDTH 812 0
DWIDTH 11 0
BBX 12 12 -1 0
BITMAP
0480
0300
0000
3CF0
1860
1860
31C0
36C0
38C0
6180
6180
F3C0
ENDCHAR

STARTCHAR afii10028
ENCODING 186
SWIDTH 717 0
DWIDTH 9 0
BBX 10 9 -1 0
BITMAP
3CC0
1940
1900
3200
3C00
3600
6600
6300
F380
ENDCHAR

STARTCHAR afii10029
ENCODING 187
SWIDTH 723 0
DWIDTH 9 0
BBX 10 9 -1 0
BITMAP
1FC0
0980
0980
1300
1300
1300
2600
A600
CF00
ENDCHAR

STARTCHAR afii10030
ENCODING 188
SWIDTH 990 0
DWIDTH 13 0
BBX 14 9 -1 0
BITMAP
381C
1838
1858
2CB0
2CB0
2D30
4660
4660
E4F0
ENDCHAR

STARTCHAR afii10031
ENCODING 189
SWIDTH 823 0
DWIDTH 11 0
BBX 12 9 -1 0
BITMAP
3CF0
1860
1860
30C0
3FC0
30C0
6180
6180
F3C0
ENDCHAR

STARTCHAR afii10032
ENCODING 190
SWIDTH 771 0
DWIDTH 10 0
BBX 9 9 0 0
BITMAP
0F00
3180
6180
6180
C180
C300
C300
C600
7800
ENDCHAR

STARTCHAR afii10033
ENCODING 191
SWIDTH 811 0
DWIDTH 11 0
BBX 12 9 -1 0
BITMAP
3FF0
1860
1860
30C0
30C0
30C0
6180
6180
F3C0
ENDCHAR

STARTCHAR afii10034
ENCODING 192
SWIDTH 667 0
DWIDTH 9 0
BBX 9 9 -1 0
BITMAP
3F00
1980
1980
3180
3E00
3000
6000
6000
F000
ENDCHAR

STARTCHAR afii10035
ENCODING 193
SWIDTH 719 0
DWIDTH 9 0
BBX 9 9 0 0
BITMAP
0E80
3100
6100
6000
C000
C000
C000
C600
7800
ENDCHAR

STARTCHAR afii10036
ENCODING 194
SWIDTH 667 0
DWIDTH 9 0
BBX 8 9 1 0
BITMAP
7F
99
18
30
30
30
60
60
F0
ENDCHAR

STARTCHAR afii10037
ENCODING 195
SWIDTH 711 0
DWIDTH 9 0
BBX 10 9 0 0
BITMAP
79C0
3080
3100
3100
1A00
1C00
1800
D000
E000
ENDCHAR

STARTCHAR afii10038
ENCODING 196
SWIDTH 862 0
DWIDTH 11 0
BBX 10 9 0 0
BITMAP
0F00
0600
3F80
4CC0
CCC0
CC80
7F00
1800
3C00
ENDCHAR

STARTCHAR afii10039
ENCODING 197
SWIDTH 719 0
DWIDTH 9 0
BBX 10 9 -1 0
BITMAP
78C0
3080
1900
1A00
0C00
1600
2600
4300
C780
ENDCHAR

STARTCHAR afii10040
ENCODING 198
SWIDTH 808 0
DWIDTH 11 0
BBX 12 11 -1 -2
BITMAP
3CF0
1860
1860
30C0
30C0
30C0
6180
6180
FFC0
0040
0040
ENDCHAR

STARTCHAR afii10041
ENCODING 199
SWIDTH 749 0
DWIDTH 10 0
BBX 9 9 1 0
BITMAP
F780
6300
6300
C600
CE00
7600
0C00
0C00
1E00
ENDCHAR

STARTCHAR afii10042
ENCODING 200
SWIDTH 1162 0
DWIDTH 15 0
BBX 16 9 -1 0
BITMAP
3DEF
18C6
18C6
318C
318C
318C
6318
6318
FFFC
ENDCHAR

STARTCHAR afii10043
ENCODING 201
SWIDTH 1162 0
DWIDTH 15 0
BBX 16 11 -1 -2
BITMAP
3DEF
18C6
18C6
318C
318C
318C
6318
6318
FFFC
0004
0004
ENDCHAR

STARTCHAR afii10044
ENCODING 202
SWIDTH 738 0
DWIDTH 10 0
BBX 9 9 0 0
BITMAP
7F00
4C00
8C00
1800
1F00
1980
3180
3300
7E00
ENDCHAR

STARTCHAR afii10045
ENCODING 203
SWIDTH 998 0
DWIDTH 13 0
BBX 14 9 -1 0
BITMAP
3C3C
1818
1818
3030
3E30
3330
6360
6660
FCF0
ENDCHAR

STARTCHAR afii10046
ENCODING 204
SWIDTH 662 0
DWIDTH 9 0
BBX 8 9 -1 0
BITMAP
3C
18
18
30
3E
33
63
66
FC
ENDCHAR

STARTCHAR afii10047
ENCODING 205
SWIDTH 693 0
DWIDTH 9 0
BBX 8 9 0 0
BITMAP
5C
62
43
03
3F
03
06
8C
78
ENDCHAR

STARTCHAR afii10048
ENCODING 206
SWIDTH 1118 0
DWIDTH 15 0
BBX 15 9 -1 0
BITMAP
3C3C
18C6
1986
3186
3F06
330C
630C
6318
F1E0
ENDCHAR

STARTCHAR afii10049
ENCODING 207
SWIDTH 708 0
DWIDTH 9 0
BBX 10 9 -1 0
BITMAP
0FC0
1980
3180
3300
0F00
1B00
3600
6600
EF00
ENDCHAR

STARTCHAR afii10065
ENCODING 208
SWIDTH 500 0
DWIDTH 6 0
BBX 6 6 0 0
BITMAP
3C
6C
6C
D8
F8
DC
ENDCHAR

STARTCHAR afii10066
ENCODING 209
SWIDTH 495 0
DWIDTH 6 0
BBX 7 9 0 0
BITMAP
06
1C
30
78
6C
6C
D8
D8
60
ENDCHAR

STARTCHAR afii10067
ENCODING 210
SWIDTH 458 0
DWIDTH 6 0
BBX 5 6 0 0
BITMAP
38
58
F0
D8
D8
60
ENDCHAR

STARTCHAR afii10068
ENCODING 211
SWIDTH 398 0
DWIDTH 5 0
BBX 5 6 0 0
BITMAP
70
18
30
60
C0
70
ENDCHAR

STARTCHAR afii10069
ENCODING 212
SWIDTH 496 0
DWIDTH 6 0
BBX 6 9 0 0
BITMAP
10
08
0C
1C
6C
6C
D8
D8
60
ENDCHAR

STARTCHAR afii10070
ENCODING 213
SWIDTH 437 0
DWIDTH 6 0
BBX 6 6 0 0
BITMAP
38
6C
7C
C0
C8
70
ENDCHAR

STARTCHAR afii10072
ENCODING 214
SWIDTH 982 0
DWIDTH 13 0
BBX 14 6 -1 0
BITMAP
1998
2DAC
0FE0
1B60
DB68
7330
ENDCHAR

STARTCHAR afii10073
ENCODING 215
SWIDTH 416 0
DWIDTH 5 0
BBX 6 6 -1 0
BITMAP
38
0C
30
18
98
70
ENDCHAR

STARTCHAR afii10074
ENCODING 216
SWIDTH 500 0
DWIDTH 6 0
BBX 6 6 0 0
BITMAP
EC
6C
6C
D8
F8
DC
ENDCHAR

STARTCHAR afii10075
ENCODING 217
SWIDTH 500 0
DWIDTH 6 0
BBX 6 9 0 0
BITMAP
24
18
00
EC
6C
6C
D8
F8
DC
ENDCHAR

STARTCHAR afii10076
ENCODING 218
SWIDTH 493 0
DWIDTH 6 0
BBX 6 6 0 0
BITMAP
E4
68
70
D8
D8
CC
ENDCHAR

STARTCHAR afii10077
ENCODING 219
SWIDTH 482 0
DWIDTH 6 0
BBX 7 6 -1 0
BITMAP
3E
16
16
2C
AC
CE
ENDCHAR

STARTCHAR afii10078
ENCODING 220
SWIDTH 652 0
DWIDTH 8 0
BBX 9 6 -1 0
BITMAP
0980
1980
1B80
2F00
2B00
CB80
ENDCHAR

STARTCHAR afii10079
ENCODING 221
SWIDTH 512 0
DWIDTH 7 0
BBX 6 6 0 0
BITMAP
EC
6C
7C
D8
D8
DC
ENDCHAR

STARTCHAR afii10080
ENCODING 222
SWIDTH 500 0
DWIDTH 6 0
BBX 6 6 0 0
BITMAP
38
6C
6C
D8
D8
70
ENDCHAR

STARTCHAR afii10081
ENCODING 223
SWIDTH 500 0
DWIDTH 6 0
BBX 6 6 0 0
BITMAP
EC
7C
6C
D8
D8
DC
ENDCHAR

STARTCHAR afii10082
ENCODING 224
SWIDTH 500 0
DWIDTH 6 0
BBX 8 8 -2 -2
BITMAP
3E
1B
1B
36
36
3C
60
F0
ENDCHAR

STARTCHAR afii10083
ENCODING 225
SWIDTH 437 0
DWIDTH 6 0
BBX 6 6 0 0
BITMAP
3C
64
60
C0
C8
70
ENDCHAR

STARTCHAR afii10084
ENCODING 226
SWIDTH 771 0
DWIDTH 10 0
BBX 9 6 0 0
BITMAP
ED80
7F80
6D80
DB00
DB00
DB80
ENDCHAR

STARTCHAR afii10085
ENCODING 227
SWIDTH 500 0
DWIDTH 6 0
BBX 7 9 -1 -3
BITMAP
76
32
32
34
34
38
30
A0
C0
ENDCHAR

STARTCHAR afii10086
ENCODING 228
SWIDTH 714 0
DWIDTH 9 0
BBX 9 11 0 -2
BITMAP
0E00
0600
0600
1F00
6D80
6D80
DB00
DB00
7E00
3000
7800
ENDCHAR

STARTCHAR afii10087
ENCODING 229
SWIDTH 552 0
DWIDTH 7 0
BBX 8 6 -1 0
BITMAP
73
34
18
18
2C
CE
ENDCHAR

STARTCHAR afii10088
ENCODING 230
SWIDTH 501 0
DWIDTH 6 0
BBX 6 9 0 -3
BITMAP
EC
6C
6C
D8
F8
DC
08
04
08
ENDCHAR

STARTCHAR afii10089
ENCODING 231
SWIDTH 486 0
DWIDTH 6 0
BBX 6 6 0 0
BITMAP
EC
6C
CC
78
18
1C
ENDCHAR

STARTCHAR afii10090
ENCODING 232
SWIDTH 776 0
DWIDTH 10 0
BBX 9 6 0 0
BITMAP
ED80
6D80
6D80
DB00
FF00
DB80
ENDCHAR

STARTCHAR afii10091
ENCODING 233
SWIDTH 776 0
DWIDTH 10 0
BBX 9 9 0 -3
BITMAP
ED80
6D80
6D80
DB80
FF00
DB80
0100
0080
0100
ENDCHAR

STARTCHAR afii10092
ENCODING 234
SWIDTH 523 0
DWIDTH 7 0
BBX 7 6 0 0
BITMAP
70
B0
3C
66
6C
38
ENDCHAR

STARTCHAR afii10093
ENCODING 235
SWIDTH 667 0
DWIDTH 9 0
BBX 9 6 0 0
BITMAP
E380
6180
7180
DB00
DB00
7380
ENDCHAR

STARTCHAR afii10094
ENCODING 236
SWIDTH 449 0
DWIDTH 6 0
BBX 6 6 0 0
BITMAP
E0
60
78
CC
D8
70
ENDCHAR

STARTCHAR afii10095
ENCODING 237
SWIDTH 415 0
DWIDTH 5 0
BBX 6 6 -1 0
BITMAP
38
0C
3C
18
98
60
ENDCHAR

STARTCHAR afii10096
ENCODING 238
SWIDTH 693 0
DWIDTH 9 0
BBX 9 6 0 0
BITMAP
E700
6D80
7D80
DB00
DB00
CE00
ENDCHAR

STARTCHAR afii10097
ENCODING 239
SWIDTH 494 0
DWIDTH 6 0
BBX 7 6 -1 0
BITMAP
1E
36
36
1C
6C
EE
ENDCHAR

STARTCHAR afii61352
ENCODING 240
SWIDTH 1000 0
DWIDTH 13 0
BBX 14 9 -1 0
BITMAP
1830
0C40
0C58
16AC
16AC
16AC
2318
A300
C178
ENDCHAR

STARTCHAR afii10071
ENCODING 241
SWIDTH 437 0
DWIDTH 6 0
BBX 6 9 0 0
BITMAP
6C
6C
00
38
6C
7C
C0
C8
70
ENDCHAR

STARTCHAR afii10099
ENCODING 242
SWIDTH 472 0
DWIDTH 6 0
BBX 6 11 0 -2
BITMAP
70
7C
30
6C
7C
6C
D8
D8
D8
30
60
ENDCHAR

STARTCHAR afii10100
ENCODING 243
SWIDTH 406 0
DWIDTH 5 0
BBX 7 9 -1 0
BITMAP
04
08
00
7E
32
30
60
60
F0
ENDCHAR

STARTCHAR afii10101
ENCODING 244
SWIDTH 426 0
DWIDTH 6 0
BBX 6 6 0 0
BITMAP
1C
64
70
C0
D0
60
ENDCHAR

STARTCHAR afii10102
ENCODING 245
SWIDTH 385 0
DWIDTH 5 0
BBX 5 6 0 0
BITMAP
38
68
60
30
B0
E0
ENDCHAR

STARTCHAR afii10103
ENCODING 246
SWIDTH 271 0
DWIDTH 4 0
BBX 4 9 0 0
BITMAP
30
30
00
E0
60
60
C0
C0
E0
ENDCHAR

STARTCHAR afii10104
ENCODING 247
SWIDTH 271 0
DWIDTH 4 0
BBX 5 9 0 0
BITMAP
D8
D8
00
E0
60
60
C0
C0
E0
ENDCHAR

STARTCHAR afii10105
ENCODING 248
SWIDTH 271 0
DWIDTH 4 0
BBX 6 12 -2 -3
BITMAP
0C
0C
00
1C
0C
0C
18
18
18
30
30
E0
ENDCHAR

STARTCHAR afii10106
ENCODING 249
SWIDTH 679 0
DWIDTH 9 0
BBX 9 6 -1 0
BITMAP
3E00
1600
1700
2D80
2D80
C700
ENDCHAR

STARTCHAR afii10107
ENCODING 250
SWIDTH 709 0
DWIDTH 9 0
BBX 8 6 0 0
BITMAP
EE
66
7F
DB
DB
DE
ENDCHAR

STARTCHAR afii10108
ENCODING 251
SWIDTH 500 0
DWIDTH 6 0
BBX 6 9 0 0
BITMAP
30
7C
30
6C
7C
6C
D8
D8
DC
ENDCHAR

STARTCHAR afii10109
ENCODING 252
SWIDTH 495 0
DWIDTH 6 0
BBX 6 9 0 0
BITMAP
04
08
00
E4
68
70
D8
D8
CC
ENDCHAR

STARTCHAR section
ENCODING 253
SWIDTH 604 0
DWIDTH 8 0
BBX 8 12 0 -3
BITMAP
0E
1B
1B
18
2C
66
66
34
18
D8
D8
70
ENDCHAR

STARTCHAR afii10110
ENCODING 254
SWIDTH 500 0
DWIDTH 6 0
BBX 7 12 -1 -3
BITMAP
12
0C
00
76
32
32
34
34
38
30
A0
C0
ENDCHAR

STARTCHAR afii10193
ENCODING 255
SWIDTH 501 0
DWIDTH 6 0
BBX 6 9 0 -3
BITMAP
EC
6C
6C
D8
F8
DC
80
40
80
ENDCHAR
ENDFONT
